<mxfile host="65bd71144e">
    <diagram id="simple_traffic_light" name="Simple Traffic Light">
        <mxGraphModel dx="774" dy="688" grid="1" gridSize="10" guides="1" tooltips="1" connect="1" arrows="1" fold="1" page="1" pageScale="1" pageWidth="827" pageHeight="1169" background="#FFFFFF" math="0" shadow="0">
            <root>
                <mxCell id="0"/>
                <mxCell id="1" parent="0"/>
                <mxCell id="arduino" value="Arduino&#10;UNO" style="rounded=1;whiteSpace=wrap;html=1;fillColor=#dae8fc;strokeColor=#6c8ebf;fontSize=14;fontStyle=1;fontColor=#000000" parent="1" vertex="1">
                    <mxGeometry x="120" y="200" width="120" height="380" as="geometry"/>
                </mxCell>
                <mxCell id="red_led" value="LED Rojo" style="ellipse;whiteSpace=wrap;html=1;aspect=fixed;fillColor=#FF0000;strokeColor=#B20000;fontColor=#000000;fontSize=12;fontStyle=1" parent="1" vertex="1">
                    <mxGeometry x="400" y="200" width="40" height="40" as="geometry"/>
                </mxCell>
                <mxCell id="r1" value="220Ω" style="pointerEvents=1;verticalLabelPosition=bottom;shadow=0;dashed=0;align=center;html=1;verticalAlign=top;shape=mxgraph.electrical.resistors.resistor_2;fillColor=#f5f5f5;strokeColor=#666666;fontSize=12;fontStyle=1;fontColor=#000000" parent="1" vertex="1">
                    <mxGeometry x="300" y="210" width="60" height="20" as="geometry"/>
                </mxCell>
                <mxCell id="r2" value="220Ω" style="pointerEvents=1;verticalLabelPosition=bottom;shadow=0;dashed=0;align=center;html=1;verticalAlign=top;shape=mxgraph.electrical.resistors.resistor_2;fillColor=#f5f5f5;strokeColor=#666666;fontSize=12;fontStyle=1;fontColor=#000000" parent="1" vertex="1">
                    <mxGeometry x="300" y="260" width="60" height="20" as="geometry"/>
                </mxCell>
                <mxCell id="r3" value="220Ω" style="pointerEvents=1;verticalLabelPosition=bottom;shadow=0;dashed=0;align=center;html=1;verticalAlign=top;shape=mxgraph.electrical.resistors.resistor_2;fillColor=#f5f5f5;strokeColor=#666666;fontSize=12;fontStyle=1;fontColor=#000000" parent="1" vertex="1">
                    <mxGeometry x="300" y="320" width="60" height="10" as="geometry"/>
                </mxCell>
                <mxCell id="yu3kA8gKFEDoz_xNnf48-1" style="edgeStyle=none;html=1;" parent="1" source="pin_labels" target="arduino" edge="1">
                    <mxGeometry relative="1" as="geometry"/>
                </mxCell>
                <mxCell id="yu3kA8gKFEDoz_xNnf48-2" style="edgeStyle=none;html=1;" parent="1" source="pin_labels" target="arduino" edge="1">
                    <mxGeometry relative="1" as="geometry"/>
                </mxCell>
                <mxCell id="pin_labels" value="D11&lt;br&gt;D10&lt;br&gt;D9&lt;br&gt;D8&lt;br&gt;D7" style="text;html=1;align=right;verticalAlign=middle;resizable=0;points=[];autosize=1;fontSize=12;fontStyle=1;fontColor=#000000" parent="1" vertex="1">
                    <mxGeometry x="190" y="235" width="50" height="90" as="geometry"/>
                </mxCell>
                <mxCell id="c1" value="" style="endArrow=none;html=1;rounded=0;entryX=0;entryY=0.5;entryDx=0;entryDy=0;strokeWidth=2;strokeColor=#0066CC;exitX=1.052;exitY=0.165;exitDx=0;exitDy=0;exitPerimeter=0;" parent="1" source="pin_labels" target="r1" edge="1">
                    <mxGeometry width="50" height="50" relative="1" as="geometry"/>
                </mxCell>
                <mxCell id="c2" value="" style="endArrow=none;html=1;rounded=0;exitX=1.004;exitY=0.324;exitDx=0;exitDy=0;entryX=0;entryY=0.5;entryDx=0;entryDy=0;strokeWidth=2;strokeColor=#0066CC;exitPerimeter=0;" parent="1" source="pin_labels" target="r2" edge="1">
                    <mxGeometry width="50" height="50" relative="1" as="geometry"/>
                </mxCell>
                <mxCell id="c3" value="" style="endArrow=none;html=1;rounded=0;exitX=1.004;exitY=0.47;exitDx=0;exitDy=0;entryX=0;entryY=0.5;entryDx=0;entryDy=0;strokeWidth=2;strokeColor=#0066CC;exitPerimeter=0;" parent="1" source="pin_labels" target="r3" edge="1">
                    <mxGeometry width="50" height="50" relative="1" as="geometry"/>
                </mxCell>
                <mxCell id="c4" value="" style="endArrow=none;html=1;rounded=0;exitX=1;exitY=0.5;exitDx=0;exitDy=0;entryX=0;entryY=0.5;entryDx=0;entryDy=0;strokeWidth=2;strokeColor=#CC0000" parent="1" source="r1" target="red_led" edge="1">
                    <mxGeometry width="50" height="50" relative="1" as="geometry"/>
                </mxCell>
                <mxCell id="c5" value="" style="endArrow=none;html=1;rounded=0;exitX=1;exitY=0.5;exitDx=0;exitDy=0;entryX=0;entryY=0.5;entryDx=0;entryDy=0;strokeWidth=2;strokeColor=#B09500" parent="1" source="r2" edge="1">
                    <mxGeometry width="50" height="50" relative="1" as="geometry">
                        <mxPoint x="399.99999999999613" y="280" as="targetPoint"/>
                    </mxGeometry>
                </mxCell>
                <mxCell id="c6" value="" style="endArrow=none;html=1;rounded=0;exitX=1;exitY=0.5;exitDx=0;exitDy=0;entryX=0;entryY=0.5;entryDx=0;entryDy=0;strokeWidth=2;strokeColor=#009900" parent="1" source="r3" edge="1">
                    <mxGeometry width="50" height="50" relative="1" as="geometry">
                        <mxPoint x="399.99999999999613" y="340" as="targetPoint"/>
                    </mxGeometry>
                </mxCell>
                <mxCell id="gnd" value="GND" style="pointerEvents=1;verticalLabelPosition=bottom;shadow=0;dashed=0;align=center;html=1;verticalAlign=top;shape=mxgraph.electrical.signal_sources.signal_ground;strokeWidth=2;fontSize=12;fontStyle=1;fontColor=#000000" parent="1" vertex="1">
                    <mxGeometry x="560" y="280" width="20" height="20" as="geometry"/>
                </mxCell>
                <mxCell id="gnd_c1" value="" style="endArrow=none;html=1;rounded=0;exitX=1;exitY=0.5;exitDx=0;exitDy=0;entryX=0;entryY=0;entryDx=0;entryDy=0;strokeWidth=2;strokeColor=#666666" parent="1" source="red_led" target="gnd" edge="1">
                    <mxGeometry width="50" height="50" relative="1" as="geometry"/>
                </mxCell>
                <mxCell id="gnd_c2" value="" style="endArrow=none;html=1;rounded=0;exitX=1;exitY=0.5;exitDx=0;exitDy=0;entryX=0;entryY=0;entryDx=0;entryDy=0;strokeWidth=2;strokeColor=#666666" parent="1" target="gnd" edge="1">
                    <mxGeometry width="50" height="50" relative="1" as="geometry">
                        <mxPoint x="440.0000000000041" y="280" as="sourcePoint"/>
                    </mxGeometry>
                </mxCell>
                <mxCell id="gnd_c3" value="" style="endArrow=none;html=1;rounded=0;exitX=1;exitY=0.5;exitDx=0;exitDy=0;entryX=0;entryY=0;entryDx=0;entryDy=0;strokeWidth=2;strokeColor=#666666" parent="1" target="gnd" edge="1">
                    <mxGeometry width="50" height="50" relative="1" as="geometry">
                        <mxPoint x="440.0000000000041" y="340" as="sourcePoint"/>
                    </mxGeometry>
                </mxCell>
                <mxCell id="2" value="LED Rojo" style="ellipse;whiteSpace=wrap;html=1;aspect=fixed;fillColor=#FF0000;strokeColor=#B20000;fontColor=#000000;fontSize=12;fontStyle=1" vertex="1" parent="1">
                    <mxGeometry x="400" y="390" width="40" height="40" as="geometry"/>
                </mxCell>
                <mxCell id="3" value="LED Rojo" style="ellipse;whiteSpace=wrap;html=1;aspect=fixed;fillColor=#FF0000;strokeColor=#B20000;fontColor=#000000;fontSize=12;fontStyle=1" vertex="1" parent="1">
                    <mxGeometry x="394" y="260" width="40" height="40" as="geometry"/>
                </mxCell>
                <mxCell id="4" value="LED Rojo" style="ellipse;whiteSpace=wrap;html=1;aspect=fixed;fillColor=#FF0000;strokeColor=#B20000;fontColor=#000000;fontSize=12;fontStyle=1" vertex="1" parent="1">
                    <mxGeometry x="400" y="325" width="40" height="40" as="geometry"/>
                </mxCell>
                <mxCell id="5" value="LED Rojo" style="ellipse;whiteSpace=wrap;html=1;aspect=fixed;fillColor=#FF0000;strokeColor=#B20000;fontColor=#000000;fontSize=12;fontStyle=1" vertex="1" parent="1">
                    <mxGeometry x="400" y="440" width="40" height="40" as="geometry"/>
                </mxCell>
                <mxCell id="6" value="220Ω" style="pointerEvents=1;verticalLabelPosition=bottom;shadow=0;dashed=0;align=center;html=1;verticalAlign=top;shape=mxgraph.electrical.resistors.resistor_2;fillColor=#f5f5f5;strokeColor=#666666;fontSize=12;fontStyle=1;fontColor=#000000" vertex="1" parent="1">
                    <mxGeometry x="300" y="390" width="60" height="10" as="geometry"/>
                </mxCell>
                <mxCell id="7" value="220Ω" style="pointerEvents=1;verticalLabelPosition=bottom;shadow=0;dashed=0;align=center;html=1;verticalAlign=top;shape=mxgraph.electrical.resistors.resistor_2;fillColor=#f5f5f5;strokeColor=#666666;fontSize=12;fontStyle=1;fontColor=#000000" vertex="1" parent="1">
                    <mxGeometry x="300" y="455" width="60" height="10" as="geometry"/>
                </mxCell>
                <mxCell id="8" value="" style="endArrow=none;html=1;rounded=0;exitX=1;exitY=0.5;exitDx=0;exitDy=0;entryX=0;entryY=0.5;entryDx=0;entryDy=0;strokeWidth=2;strokeColor=#009900;exitPerimeter=0;" edge="1" parent="1" source="6" target="2">
                    <mxGeometry width="50" height="50" relative="1" as="geometry">
                        <mxPoint x="370" y="335" as="sourcePoint"/>
                        <mxPoint x="409.99999999999613" y="350" as="targetPoint"/>
                    </mxGeometry>
                </mxCell>
                <mxCell id="9" value="" style="endArrow=none;html=1;rounded=0;exitX=1;exitY=0.5;exitDx=0;exitDy=0;entryX=0;entryY=0.5;entryDx=0;entryDy=0;strokeWidth=2;strokeColor=#009900;exitPerimeter=0;" edge="1" parent="1" source="7" target="5">
                    <mxGeometry width="50" height="50" relative="1" as="geometry">
                        <mxPoint x="370" y="405" as="sourcePoint"/>
                        <mxPoint x="409.99999999999613" y="420" as="targetPoint"/>
                    </mxGeometry>
                </mxCell>
                <mxCell id="10" value="" style="endArrow=none;html=1;rounded=0;exitX=1;exitY=0.5;exitDx=0;exitDy=0;entryX=-0.021;entryY=-0.016;entryDx=0;entryDy=0;strokeWidth=2;strokeColor=#666666;entryPerimeter=0;" edge="1" parent="1" source="2" target="gnd">
                    <mxGeometry width="50" height="50" relative="1" as="geometry">
                        <mxPoint x="450.0000000000041" y="350" as="sourcePoint"/>
                        <mxPoint x="570" y="290" as="targetPoint"/>
                    </mxGeometry>
                </mxCell>
                <mxCell id="11" value="" style="endArrow=none;html=1;rounded=0;exitX=1;exitY=0.5;exitDx=0;exitDy=0;strokeWidth=2;strokeColor=#666666;entryX=-0.081;entryY=0.222;entryDx=0;entryDy=0;entryPerimeter=0;" edge="1" parent="1" source="5" target="gnd">
                    <mxGeometry width="50" height="50" relative="1" as="geometry">
                        <mxPoint x="460.0000000000041" y="360" as="sourcePoint"/>
                        <mxPoint x="560" y="270" as="targetPoint"/>
                    </mxGeometry>
                </mxCell>
                <mxCell id="12" value="" style="endArrow=none;html=1;rounded=0;exitX=0.98;exitY=0.642;exitDx=0;exitDy=0;entryX=0;entryY=0;entryDx=0;entryDy=0;strokeWidth=2;strokeColor=#0066CC;exitPerimeter=0;entryPerimeter=0;" edge="1" parent="1" source="pin_labels" target="6">
                    <mxGeometry width="50" height="50" relative="1" as="geometry">
                        <mxPoint x="239.99999999999994" y="352.29999999999995" as="sourcePoint"/>
                        <mxPoint x="299.8" y="400" as="targetPoint"/>
                    </mxGeometry>
                </mxCell>
                <mxCell id="13" value="" style="endArrow=none;html=1;rounded=0;exitX=0.98;exitY=0.867;exitDx=0;exitDy=0;entryX=0;entryY=0.5;entryDx=0;entryDy=0;strokeWidth=2;strokeColor=#0066CC;exitPerimeter=0;entryPerimeter=0;" edge="1" parent="1" source="pin_labels" target="7">
                    <mxGeometry width="50" height="50" relative="1" as="geometry">
                        <mxPoint x="260.19999999999993" y="297.29999999999995" as="sourcePoint"/>
                        <mxPoint x="320" y="345" as="targetPoint"/>
                    </mxGeometry>
                </mxCell>
            </root>
        </mxGraphModel>
    </diagram>
</mxfile>